<svg width="131" height="43" viewBox="0 0 131 43" fill="none" xmlns="http://www.w3.org/2000/svg">
<path d="M15.3797 34.6885C22.6349 34.6885 28.5164 28.6329 28.5164 21.163C28.5164 13.6931 22.6349 7.6376 15.3797 7.6376C8.12445 7.6376 2.24294 13.6931 2.24294 21.163C2.24294 28.6329 8.12445 34.6885 15.3797 34.6885Z" fill="#0B3D91"/>
<path d="M14.604 10.3872C14.6854 10.3872 14.7513 10.3193 14.7513 10.2355C14.7513 10.1518 14.6854 10.0839 14.604 10.0839C14.5227 10.0839 14.4568 10.1518 14.4568 10.2355C14.4568 10.3193 14.5227 10.3872 14.604 10.3872Z" fill="white"/>
<path d="M16.116 10.5893C16.1974 10.5893 16.2633 10.5215 16.2633 10.4377C16.2633 10.354 16.1974 10.2861 16.116 10.2861C16.0347 10.2861 15.9688 10.354 15.9688 10.4377C15.9688 10.5215 16.0347 10.5893 16.116 10.5893Z" fill="white"/>
<path d="M18.0993 13.3389C18.1806 13.3389 18.2466 13.271 18.2466 13.1873C18.2466 13.1035 18.1806 13.0356 18.0993 13.0356C18.018 13.0356 17.952 13.1035 17.952 13.1873C17.952 13.271 18.018 13.3389 18.0993 13.3389Z" fill="white"/>
<path d="M7.22076 27.4911C7.30209 27.4911 7.36803 27.4232 7.36803 27.3394C7.36803 27.2557 7.30209 27.1878 7.22076 27.1878C7.13942 27.1878 7.07349 27.2557 7.07349 27.3394C7.07349 27.4232 7.13942 27.4911 7.22076 27.4911Z" fill="white"/>
<path d="M7.60367 28.7041C7.685 28.7041 7.75094 28.6362 7.75094 28.5525C7.75094 28.4688 7.685 28.4009 7.60367 28.4009C7.52233 28.4009 7.45639 28.4688 7.45639 28.5525C7.45639 28.6362 7.52233 28.7041 7.60367 28.7041Z" fill="white"/>
<path d="M5.77749 27.635C5.8384 27.635 5.88778 27.5841 5.88778 27.5214C5.88778 27.4587 5.8384 27.4079 5.77749 27.4079C5.71657 27.4079 5.66719 27.4587 5.66719 27.5214C5.66719 27.5841 5.71657 27.635 5.77749 27.635Z" fill="white"/>
<path d="M11.7666 30.0183C11.8277 30.0183 11.8772 29.9673 11.8772 29.9044C11.8772 29.8415 11.8277 29.7905 11.7666 29.7905C11.7055 29.7905 11.656 29.8415 11.656 29.9044C11.656 29.9673 11.7055 30.0183 11.7666 30.0183Z" fill="white"/>
<path d="M21.16 28.009C21.2209 28.009 21.2702 27.9581 21.2702 27.8954C21.2702 27.8327 21.2209 27.7819 21.16 27.7819C21.099 27.7819 21.0497 27.8327 21.0497 27.8954C21.0497 27.9581 21.099 28.009 21.16 28.009Z" fill="white"/>
<path d="M23.8897 24.9565C23.9508 24.9565 24.0004 24.9055 24.0004 24.8426C24.0004 24.7797 23.9508 24.7287 23.8897 24.7287C23.8286 24.7287 23.7791 24.7797 23.7791 24.8426C23.7791 24.9055 23.8286 24.9565 23.8897 24.9565Z" fill="white"/>
<path d="M10.5098 14.1877C10.5708 14.1877 10.6201 14.1369 10.6201 14.0741C10.6201 14.0114 10.5708 13.9606 10.5098 13.9606C10.4489 13.9606 10.3996 14.0114 10.3996 14.0741C10.3996 14.1369 10.4489 14.1877 10.5098 14.1877Z" fill="white"/>
<path d="M13.5142 11.9159C13.5751 11.9159 13.6245 11.8651 13.6245 11.8024C13.6245 11.7397 13.5751 11.6888 13.5142 11.6888C13.4533 11.6888 13.4039 11.7397 13.4039 11.8024C13.4039 11.8651 13.4533 11.9159 13.5142 11.9159Z" fill="white"/>
<path d="M13.1879 11.6935C13.2488 11.6935 13.2982 11.6427 13.2982 11.58C13.2982 11.5173 13.2488 11.4664 13.1879 11.4664C13.127 11.4664 13.0776 11.5173 13.0776 11.58C13.0776 11.6427 13.127 11.6935 13.1879 11.6935Z" fill="white"/>
<path d="M12.8934 11.4712C12.9543 11.4712 13.0037 11.4203 13.0037 11.3576C13.0037 11.2949 12.9543 11.244 12.8934 11.244C12.8325 11.244 12.7831 11.2949 12.7831 11.3576C12.7831 11.4203 12.8325 11.4712 12.8934 11.4712Z" fill="white"/>
<path d="M10.9811 14.7743C11.042 14.7743 11.0914 14.7235 11.0914 14.6608C11.0914 14.5981 11.042 14.5472 10.9811 14.5472C10.9202 14.5472 10.8708 14.5981 10.8708 14.6608C10.8708 14.7235 10.9202 14.7743 10.9811 14.7743Z" fill="white"/>
<path d="M15.4065 8.86311C15.4674 8.86311 15.5168 8.81227 15.5168 8.74956C15.5168 8.68685 15.4674 8.63601 15.4065 8.63601C15.3456 8.63601 15.2962 8.68685 15.2962 8.74956C15.2962 8.81227 15.3456 8.86311 15.4065 8.86311Z" fill="white"/>
<path d="M16.1334 12.1383C16.1943 12.1383 16.2437 12.0875 16.2437 12.0248C16.2437 11.9621 16.1943 11.9112 16.1334 11.9112C16.0725 11.9112 16.0231 11.9621 16.0231 12.0248C16.0231 12.0875 16.0725 12.1383 16.1334 12.1383Z" fill="white"/>
<path d="M14.9869 11.4988C15.0479 11.4988 15.0972 11.4479 15.0972 11.3852C15.0972 11.3225 15.0479 11.2717 14.9869 11.2717C14.926 11.2717 14.8767 11.3225 14.8767 11.3852C14.8767 11.4479 14.926 11.4988 14.9869 11.4988Z" fill="white"/>
<path d="M13.0233 12.3685C13.0842 12.3685 13.1336 12.3176 13.1336 12.2549C13.1336 12.1922 13.0842 12.1414 13.0233 12.1414C12.9624 12.1414 12.913 12.1922 12.913 12.2549C12.913 12.3176 12.9624 12.3685 13.0233 12.3685Z" fill="white"/>
<path d="M21.6829 31.0089C21.7439 31.0089 21.7932 30.9581 21.7932 30.8954C21.7932 30.8326 21.7439 30.7818 21.6829 30.7818C21.622 30.7818 21.5726 30.8326 21.5726 30.8954C21.5726 30.9581 21.622 31.0089 21.6829 31.0089Z" fill="white"/>
<path d="M7.03421 28.2216C7.09531 28.2216 7.14483 28.1706 7.14483 28.1077C7.14483 28.0448 7.09531 27.9938 7.03421 27.9938C6.97312 27.9938 6.92359 28.0448 6.92359 28.1077C6.92359 28.1706 6.97312 28.2216 7.03421 28.2216Z" fill="white"/>
<path d="M14.712 29.6874C14.7731 29.6874 14.8226 29.6364 14.8226 29.5735C14.8226 29.5106 14.7731 29.4596 14.712 29.4596C14.6509 29.4596 14.6014 29.5106 14.6014 29.5735C14.6014 29.6364 14.6509 29.6874 14.712 29.6874Z" fill="white"/>
<path d="M9.31923 28.1306C9.38032 28.1306 9.42985 28.0796 9.42985 28.0167C9.42985 27.9538 9.38032 27.9028 9.31923 27.9028C9.25814 27.9028 9.20861 27.9538 9.20861 28.0167C9.20861 28.0796 9.25814 28.1306 9.31923 28.1306Z" fill="white"/>
<path d="M10.2742 29.7355C10.3353 29.7355 10.3848 29.6846 10.3848 29.6217C10.3848 29.5588 10.3353 29.5078 10.2742 29.5078C10.2131 29.5078 10.1636 29.5588 10.1636 29.6217C10.1636 29.6846 10.2131 29.7355 10.2742 29.7355Z" fill="white"/>
<path d="M17.304 28.7243C17.3649 28.7243 17.4143 28.6735 17.4143 28.6108C17.4143 28.5481 17.3649 28.4972 17.304 28.4972C17.2431 28.4972 17.1937 28.5481 17.1937 28.6108C17.1937 28.6735 17.2431 28.7243 17.304 28.7243Z" fill="white"/>
<path d="M21.1796 26.4725C21.2405 26.4725 21.2899 26.4216 21.2899 26.3589C21.2899 26.2962 21.2405 26.2454 21.1796 26.2454C21.1187 26.2454 21.0693 26.2962 21.0693 26.3589C21.0693 26.4216 21.1187 26.4725 21.1796 26.4725Z" fill="white"/>
<path d="M24.1179 27.8547C24.1788 27.8547 24.2281 27.8038 24.2281 27.7411C24.2281 27.6784 24.1788 27.6275 24.1179 27.6275C24.0569 27.6275 24.0076 27.6784 24.0076 27.7411C24.0076 27.8038 24.0569 27.8547 24.1179 27.8547Z" fill="white"/>
<path d="M25.1193 28.5144C25.1802 28.5144 25.2296 28.4636 25.2296 28.4009C25.2296 28.3382 25.1802 28.2873 25.1193 28.2873C25.0584 28.2873 25.009 28.3382 25.009 28.4009C25.009 28.4636 25.0584 28.5144 25.1193 28.5144Z" fill="white"/>
<path d="M25.2839 26.7151C25.3448 26.7151 25.3942 26.6642 25.3942 26.6015C25.3942 26.5388 25.3448 26.488 25.2839 26.488C25.223 26.488 25.1736 26.5388 25.1736 26.6015C25.1736 26.6642 25.223 26.7151 25.2839 26.7151Z" fill="white"/>
<path d="M10.6741 24.1677C10.7351 24.1677 10.7844 24.1168 10.7844 24.0541C10.7844 23.9914 10.7351 23.9406 10.6741 23.9406C10.6132 23.9406 10.5638 23.9914 10.5638 24.0541C10.5638 24.1168 10.6132 24.1677 10.6741 24.1677Z" fill="white"/>
<path d="M10.716 26.8138C10.7974 26.8138 10.8633 26.7459 10.8633 26.6622C10.8633 26.5784 10.7974 26.5105 10.716 26.5105C10.6347 26.5105 10.5688 26.5784 10.5688 26.6622C10.5688 26.7459 10.6347 26.8138 10.716 26.8138Z" fill="white"/>
<path d="M11.5997 28.7345C11.681 28.7345 11.7469 28.6666 11.7469 28.5828C11.7469 28.4991 11.681 28.4312 11.5997 28.4312C11.5183 28.4312 11.4524 28.4991 11.4524 28.5828C11.4524 28.6666 11.5183 28.7345 11.5997 28.7345Z" fill="white"/>
<path d="M22.1837 26.7329C22.265 26.7329 22.3309 26.665 22.3309 26.5813C22.3309 26.4976 22.265 26.4297 22.1837 26.4297C22.1023 26.4297 22.0364 26.4976 22.0364 26.5813C22.0364 26.665 22.1023 26.7329 22.1837 26.7329Z" fill="white"/>
<path d="M25.9931 26.5105C26.0745 26.5105 26.1404 26.4427 26.1404 26.3589C26.1404 26.2752 26.0745 26.2073 25.9931 26.2073C25.9118 26.2073 25.8458 26.2752 25.8458 26.3589C25.8458 26.4427 25.9118 26.5105 25.9931 26.5105Z" fill="white"/>
<path d="M24.108 25.6816C24.1894 25.6816 24.2553 25.6137 24.2553 25.53C24.2553 25.4463 24.1894 25.3784 24.108 25.3784C24.0267 25.3784 23.9608 25.4463 23.9608 25.53C23.9608 25.6137 24.0267 25.6816 24.108 25.6816Z" fill="white"/>
<path d="M22.1837 25.7625C22.265 25.7625 22.3309 25.6946 22.3309 25.6109C22.3309 25.5271 22.265 25.4592 22.1837 25.4592C22.1023 25.4592 22.0364 25.5271 22.0364 25.6109C22.0364 25.6946 22.1023 25.7625 22.1837 25.7625Z" fill="white"/>
<path d="M18.2142 10.1405L18.5804 10.1045L18.2148 10.0832C18.2034 10.0105 18.1468 9.95351 18.0754 9.94407L18.0404 9.5687L18.0194 9.9471C17.9533 9.96227 17.9026 10.0192 17.8944 10.09L17.52 10.125L17.897 10.1459C17.9108 10.2109 17.9618 10.2618 18.026 10.274L18.06 10.6608L18.08 10.2746C18.1477 10.2628 18.2014 10.2093 18.2142 10.1405Z" fill="white"/>
<path d="M12.0333 14.3383L12.3995 14.3023L12.034 14.281C12.0228 14.2083 11.9659 14.1513 11.8945 14.1419L11.8595 13.7665L11.8389 14.1449C11.7725 14.1601 11.7217 14.217 11.7136 14.2878L11.3392 14.3228L11.7162 14.3437C11.7299 14.4087 11.781 14.4596 11.8451 14.4718L11.8792 14.8586L11.8994 14.4724C11.9672 14.461 12.0209 14.4071 12.0333 14.3383Z" fill="white"/>
<path d="M25.7248 25.437L26.091 25.4009L25.7254 25.3797C25.7143 25.3069 25.6573 25.25 25.586 25.2406L25.551 24.8652L25.5304 25.2436C25.4643 25.2587 25.4135 25.3157 25.4053 25.3865L25.0309 25.4215L25.408 25.4424C25.4217 25.5074 25.4728 25.5583 25.5369 25.5704L25.5709 25.9573L25.5912 25.5711C25.6583 25.5596 25.712 25.5061 25.7248 25.437Z" fill="white"/>
<path d="M10.7962 31.2401L11.1624 31.204L10.7969 31.1828C10.7854 31.11 10.7288 31.053 10.6574 31.0436L10.6224 30.6686L10.6018 31.0466C10.5354 31.0618 10.4846 31.1188 10.4765 31.1895L10.1021 31.2246L10.4791 31.2455C10.4928 31.3105 10.5439 31.3617 10.608 31.3735L10.6421 31.7603L10.6624 31.3742C10.7298 31.3627 10.7838 31.3088 10.7962 31.2401Z" fill="white"/>
<path d="M24.5613 28.4096L24.9275 28.3736L24.562 28.3523C24.5508 28.2796 24.4939 28.2226 24.4225 28.2132L24.3875 27.8378L24.3669 28.2159C24.3008 28.231 24.2501 28.288 24.2419 28.3587L23.8675 28.3938L24.2445 28.4147C24.2582 28.4797 24.3093 28.5306 24.3734 28.5427L24.4075 28.9296L24.4278 28.5434C24.4949 28.5323 24.5489 28.4784 24.5613 28.4096Z" fill="white"/>
<path d="M18.495 17.9232C16.9676 18.5344 15.4778 19.08 14.2208 19.485C11.6664 20.3085 4.67752 22.5378 0.455704 25.348L0.809158 25.4896C3.38152 23.9935 5.05356 23.5234 6.66079 23.0028C8.40843 22.4367 14.0581 21.0754 16.6164 20.3341C17.4808 20.0838 18.493 19.7559 19.5652 19.357C19.3158 18.9988 19.0526 18.6396 18.7758 18.281C18.6832 18.1601 18.5892 18.0408 18.495 17.9232ZM20.3611 20.5713C19.9913 20.8284 19.6813 21.0336 19.4644 21.163C18.2076 21.9111 12.0808 26.2174 10.6869 27.208C9.29305 28.1987 5.42436 31.9591 4.28545 33.0509L4.24618 33.4953C7.91818 30.0988 9.07018 29.2611 10.5298 28.1178C12.3364 26.7026 16.0735 24.0845 17.3436 23.2454C18.5578 22.4435 19.6529 21.7059 20.6357 21.031C20.6196 21.0033 20.6036 20.9757 20.5876 20.9477C20.5136 20.8227 20.438 20.6974 20.3611 20.5713ZM26.1011 14.3296C24.3122 15.4092 21.4928 16.7122 18.7574 17.8177C18.8229 17.9003 18.888 17.9835 18.9528 18.0674C19.2585 18.4637 19.5468 18.8626 19.8181 19.2619C21.9683 18.4465 24.3276 17.3521 26.1996 16.0275C25.3078 16.8975 22.3594 19.1662 20.5617 20.4308C20.6543 20.5862 20.744 20.7415 20.8307 20.8962C23.5543 19.0197 25.387 17.6385 26.4549 16.7149C27.9276 15.4412 31.2854 12.5905 32.5618 8.76944C30.3229 11.7013 27.676 13.379 26.1011 14.3296Z" fill="#FC3D21"/>
<path d="M13.6893 24.512C13.3997 24.1367 12.9991 23.6339 12.6983 23.2441C12.2961 22.7228 11.924 22.1961 11.583 21.6702C11.4717 21.6988 11.3608 21.7274 11.2498 21.7561C11.6615 22.4175 12.1187 23.078 12.6168 23.7236C12.9808 24.1953 13.3116 24.5751 13.4812 24.8113C13.5155 24.8591 13.5836 24.9649 13.6756 25.1058C13.7816 25.0316 13.8886 24.9568 13.9966 24.8814C13.8922 24.7644 13.7891 24.6414 13.6893 24.512ZM15.8035 26.488C15.5656 26.2561 14.9886 25.869 14.388 25.2881C14.2555 25.3817 14.1216 25.4768 13.9874 25.5725C14.3753 26.1352 14.9035 26.8263 15.3172 27.0278C15.9403 27.3317 16.1082 26.7852 15.8035 26.488ZM18.9528 18.0674C15.5191 13.6176 11.3244 11.173 9.51592 12.6525C8.11127 13.8015 8.68792 17.1597 10.6241 20.6873C10.7242 20.6519 10.8234 20.6172 10.9216 20.5828C8.96741 17.1458 8.43265 13.9518 9.75745 12.8678C11.4223 11.5059 15.4415 13.9603 18.7758 18.281C19.466 19.1753 20.0737 20.0726 20.5876 20.9477C22.5551 24.3004 23.1586 27.3324 21.7991 28.57C21.3832 28.9488 20.112 29.0974 18.4469 28.3257C18.4236 28.3557 18.4609 28.4369 18.4901 28.4568C19.9275 29.0519 21.3043 29.2786 21.9994 28.7102C23.6698 27.3435 22.3866 22.5173 18.9528 18.0674Z" fill="white"/>
<path d="M4.22621 18.5954H6.42549L8.2713 21.8201C8.2713 21.8201 8.2713 19.485 8.2713 19.303C8.2713 19.02 7.92276 18.651 7.80003 18.5954C7.9473 18.5954 9.23349 18.5954 9.32185 18.5954C9.22858 18.6207 8.92912 18.9947 8.92912 19.303C8.92912 19.4547 8.92912 22.8411 8.92912 23.0028C8.92912 23.2303 9.24821 23.5436 9.40039 23.6649H7.27967L5.4044 20.4251C5.4044 20.4251 5.4044 22.8411 5.4044 22.9725C5.4044 23.2252 5.64494 23.4678 5.8953 23.675H4.2753C4.50603 23.574 4.72694 23.2555 4.74658 23.0028C4.76621 22.7501 4.74658 19.49 4.74658 19.3485C4.74658 19.0402 4.45694 18.7875 4.22621 18.5954Z" fill="white"/>
<path d="M24.3437 23.6649H27.2695C27.1075 23.6245 26.9258 23.4274 26.8277 23.1646C26.7295 22.9017 25.1782 18.5954 25.1782 18.5954H24.0658C23.7503 18.8293 23.4122 19.0759 23.0513 19.3357C23.0503 19.3452 23.0493 19.3546 23.0477 19.3637C22.9992 19.667 22.1287 22.9132 22.0757 23.0736C22.002 23.296 21.624 23.5436 21.4718 23.675H23.0477C22.8906 23.4931 22.7629 23.3162 22.7924 23.114C22.8218 22.9118 22.9102 22.5075 22.9102 22.5075H24.54C24.6137 22.7097 24.6686 22.8913 24.6971 23.0635C24.7315 23.2707 24.5253 23.5032 24.3437 23.6649ZM23.0575 21.8605L23.6073 20.0106L24.3338 21.8605H23.0575ZM22.8097 18.7801C22.8906 18.7188 22.9717 18.6571 23.0526 18.5954H22.6255C22.668 18.6359 22.7384 18.6995 22.8097 18.7801Z" fill="white"/>
<path d="M11.6193 23.114C11.6488 22.9118 11.7371 22.5075 11.7371 22.5075H13.3669C13.4406 22.7097 13.4956 22.8913 13.524 23.0635C13.5584 23.2707 13.3522 23.5032 13.1706 23.6649H15.7465C15.8002 23.6279 15.8536 23.5908 15.9069 23.5541C15.8071 23.4631 15.7151 23.3266 15.6546 23.1646C15.5564 22.9017 14.0051 18.5954 14.0051 18.5954H11.4524C11.5751 18.7117 11.9286 19.025 11.8746 19.3637C11.8265 19.667 10.9556 22.9132 10.9026 23.0736C10.8289 23.296 10.4509 23.5436 10.2988 23.675H11.8746C11.7175 23.4931 11.5898 23.3162 11.6193 23.114ZM12.4342 20.0106L13.1608 21.8605H11.8844L12.4342 20.0106Z" fill="white"/>
<path d="M20.5175 21.1118C20.0371 21.4414 19.5301 21.7854 18.996 22.1446C19.2356 22.2642 19.4264 22.4145 19.4447 22.6086C19.4788 22.9732 18.7673 23.1494 18.1242 23.0736C17.9956 23.0584 17.8692 23.0237 17.7488 22.9772C17.6153 23.0658 17.4804 23.1551 17.3436 23.2454C17.2045 23.3374 17.0357 23.4506 16.8429 23.5814V24.1047C16.9705 23.8469 17.2497 23.6161 17.4664 23.6043C17.5596 23.5992 17.8836 23.9075 19.2189 23.8317C19.8669 23.795 21.1187 23.0837 21.0991 22.2649C21.0873 21.781 20.8419 21.4036 20.5175 21.1118ZM16.8426 22.3761V22.9091C16.9607 22.8279 17.0772 22.7481 17.1914 22.6702C17.0118 22.5415 16.8845 22.4212 16.8426 22.3761ZM20.061 20.7772C19.9366 20.7014 19.8106 20.635 19.6898 20.5764C19.0615 20.2731 18.4037 20.2175 18.2662 19.8081C18.1693 19.5194 18.4429 19.2522 19.1106 19.2623C19.7782 19.2724 20.3968 19.6818 20.5637 19.8284V18.5243C20.5146 18.5749 20.2992 18.8293 20.1022 18.7872C19.7242 18.7063 19.0811 18.6008 18.3448 18.6052C17.5004 18.6103 16.7738 19.2821 16.7493 20.1316C16.7149 21.3194 17.6378 21.6429 18.1582 21.8299C18.2119 21.8491 18.2731 21.8696 18.3395 21.8915C18.8386 21.5573 19.2333 21.3002 19.4644 21.163C19.6195 21.071 19.8227 20.9386 20.061 20.7772Z" fill="white"/>
<path d="M45.8686 20.3828H43.691C43.6513 20.1011 43.5701 19.8508 43.4474 19.6321C43.3248 19.41 43.1674 19.2211 42.9751 19.0653C42.7829 18.9096 42.5608 18.7902 42.3089 18.7074C42.0604 18.6245 41.7902 18.5831 41.4986 18.5831C40.9716 18.5831 40.5125 18.714 40.1214 18.9758C39.7303 19.2344 39.4271 19.6122 39.2116 20.1094C38.9962 20.6032 38.8885 21.2031 38.8885 21.9091C38.8885 22.6349 38.9962 23.2448 39.2116 23.7386C39.4304 24.2325 39.7353 24.6053 40.1264 24.8572C40.5175 25.1091 40.9699 25.2351 41.4837 25.2351C41.772 25.2351 42.0388 25.197 42.2841 25.1207C42.5327 25.0445 42.7531 24.9335 42.9453 24.7876C43.1375 24.6385 43.2966 24.4579 43.4226 24.2457C43.5518 24.0336 43.6413 23.7917 43.691 23.5199L45.8686 23.5298C45.8123 23.9972 45.6714 24.4479 45.446 24.8821C45.224 25.313 44.924 25.6991 44.5462 26.0405C44.1716 26.3785 43.7242 26.647 43.2038 26.8459C42.6868 27.0414 42.1018 27.1392 41.4489 27.1392C40.5407 27.1392 39.7287 26.9337 39.0128 26.5227C38.3002 26.1117 37.7367 25.5168 37.3224 24.7379C36.9115 23.959 36.706 23.0161 36.706 21.9091C36.706 20.7988 36.9148 19.8542 37.3324 19.0753C37.75 18.2964 38.3168 17.7031 39.0327 17.2954C39.7486 16.8845 40.554 16.679 41.4489 16.679C42.0388 16.679 42.5857 16.7618 43.0895 16.9275C43.5966 17.0933 44.0457 17.3352 44.4368 17.6534C44.8279 17.9683 45.1461 18.3544 45.3913 18.8118C45.6399 19.2692 45.799 19.7928 45.8686 20.3828Z" fill="white"/>
<path d="M46.8523 16.8182H49.5071L52.3111 23.6591H52.4304L55.2344 16.8182H57.8892V27H55.8011V20.3729H55.7166L53.0817 26.9503H51.6598L49.0249 20.348H48.9404V27H46.8523V16.8182Z" fill="white"/>
<path d="M59.1028 27V16.8182H63.1199C63.8888 16.8182 64.5451 16.9557 65.0886 17.2308C65.6355 17.5026 66.0515 17.8887 66.3365 18.3892C66.6248 18.8864 66.769 19.4713 66.769 20.1442C66.769 20.8203 66.6232 21.402 66.3315 21.8892C66.0399 22.3731 65.6173 22.7443 65.0638 23.0028C64.5136 23.2614 63.8474 23.3906 63.0652 23.3906H60.3756V21.6605H62.7172C63.1282 21.6605 63.4695 21.6042 63.7413 21.4915C64.0131 21.3788 64.2153 21.2097 64.3479 20.9844C64.4837 20.759 64.5517 20.4789 64.5517 20.1442C64.5517 19.8061 64.4837 19.5211 64.3479 19.2891C64.2153 19.057 64.0114 18.8814 63.7364 18.7621C63.4646 18.6394 63.1215 18.5781 62.7072 18.5781H61.2555V27H59.1028ZM64.6014 22.3665L67.132 27H64.7555L62.2797 22.3665H64.6014Z" fill="white"/>
<path d="M77.162 20.1094C77.0924 19.8674 76.9946 19.6536 76.8687 19.468C76.7427 19.2791 76.5886 19.12 76.4063 18.9908C76.2273 18.8582 76.0218 18.7571 75.7898 18.6875C75.5611 18.6179 75.3076 18.5831 75.0292 18.5831C74.5088 18.5831 74.0514 18.7124 73.657 18.9709C73.2659 19.2294 72.961 19.6056 72.7422 20.0994C72.5235 20.59 72.4141 21.1899 72.4141 21.8991C72.4141 22.6084 72.5218 23.2116 72.7373 23.7088C72.9527 24.206 73.2576 24.5855 73.652 24.8473C74.0465 25.1058 74.5121 25.2351 75.0491 25.2351C75.5363 25.2351 75.9522 25.1489 76.2969 24.9766C76.6449 24.8009 76.9101 24.554 77.0924 24.2358C77.278 23.9176 77.3708 23.5414 77.3708 23.1072L77.8083 23.1719H75.1833V21.5511H79.4439V22.8338C79.4439 23.7287 79.255 24.4976 78.8772 25.1406C78.4993 25.7803 77.979 26.2741 77.3161 26.6222C76.6532 26.9668 75.8942 27.1392 75.0391 27.1392C74.0846 27.1392 73.246 26.9287 72.5235 26.5078C71.801 26.0836 71.2375 25.482 70.8331 24.7031C70.4321 23.9209 70.2316 22.9929 70.2316 21.919C70.2316 21.0937 70.3509 20.3579 70.5895 19.7116C70.8315 19.062 71.1696 18.5118 71.6037 18.0611C72.0379 17.6103 72.5434 17.2673 73.1201 17.032C73.6968 16.7966 74.3215 16.679 74.9944 16.679C75.5711 16.679 76.108 16.7635 76.6052 16.9325C77.1023 17.0982 77.5431 17.3336 77.9276 17.6385C78.3154 17.9434 78.6319 18.3063 78.8772 18.7273C79.1224 19.1449 79.2799 19.6056 79.3495 20.1094H77.162Z" fill="white"/>
<path d="M80.4612 27V19.3636H82.5145V20.696H82.594C82.7332 20.2221 82.9669 19.8641 83.295 19.6222C83.6231 19.3769 84.001 19.2543 84.4285 19.2543C84.5346 19.2543 84.6489 19.2609 84.7716 19.2741C84.8942 19.2874 85.0019 19.3056 85.0947 19.3288V21.2081C84.9953 21.1783 84.8577 21.1517 84.6821 21.1285C84.5064 21.1053 84.3457 21.0937 84.1998 21.0937C83.8883 21.0937 83.6099 21.1617 83.3646 21.2976C83.1226 21.4302 82.9304 21.6158 82.7879 21.8544C82.6487 22.093 82.5791 22.3681 82.5791 22.6797V27H80.4612Z" fill="white"/>
<path d="M87.5885 27.1442C87.1013 27.1442 86.6671 27.0597 86.2859 26.8906C85.9048 26.7183 85.6032 26.4647 85.3811 26.13C85.1624 25.7919 85.053 25.371 85.053 24.8672C85.053 24.4429 85.1309 24.0866 85.2867 23.7983C85.4424 23.5099 85.6546 23.2779 85.923 23.1023C86.1915 22.9266 86.4964 22.794 86.8378 22.7045C87.1825 22.6151 87.5438 22.5521 87.9216 22.5156C88.3657 22.4692 88.7237 22.4261 88.9955 22.3864C89.2672 22.3433 89.4645 22.2803 89.5871 22.1974C89.7097 22.1146 89.771 21.9919 89.771 21.8295V21.7997C89.771 21.4848 89.6716 21.2412 89.4727 21.0689C89.2772 20.8965 88.9988 20.8104 88.6375 20.8104C88.2564 20.8104 87.9531 20.8949 87.7277 21.0639C87.5023 21.2296 87.3532 21.4384 87.2803 21.6903L85.3215 21.5312C85.4209 21.0672 85.6164 20.6662 85.9081 20.3281C86.1998 19.9867 86.576 19.7249 87.0367 19.5426C87.5007 19.357 88.0376 19.2642 88.6475 19.2642C89.0717 19.2642 89.4777 19.3139 89.8655 19.4133C90.2566 19.5128 90.6029 19.6669 90.9046 19.8757C91.2095 20.0845 91.4498 20.353 91.6254 20.6811C91.8011 21.0059 91.8889 21.3954 91.8889 21.8494V27H89.8804V25.941H89.8208C89.6981 26.1797 89.5341 26.3901 89.3286 26.5724C89.1231 26.7514 88.8761 26.8923 88.5878 26.995C88.2994 27.0945 87.9663 27.1442 87.5885 27.1442ZM88.195 25.6825C88.5066 25.6825 88.7817 25.6212 89.0203 25.4986C89.259 25.3726 89.4462 25.2036 89.5821 24.9915C89.718 24.7793 89.7859 24.5391 89.7859 24.2706V23.4602C89.7197 23.5033 89.6285 23.5431 89.5125 23.5795C89.3998 23.6127 89.2722 23.6442 89.1297 23.674C88.9872 23.7005 88.8447 23.7254 88.7021 23.7486C88.5596 23.7685 88.4304 23.7867 88.3144 23.8033C88.0658 23.8397 87.8487 23.8977 87.6631 23.9773C87.4775 24.0568 87.3333 24.1645 87.2305 24.3004C87.1278 24.433 87.0764 24.5987 87.0764 24.7976C87.0764 25.0859 87.1808 25.3063 87.3896 25.4588C87.6018 25.6079 87.8702 25.6825 88.195 25.6825Z" fill="white"/>
<path d="M92.972 29.8636V19.3636H95.0601V20.6463H95.1546C95.2474 20.4408 95.3816 20.232 95.5573 20.0199C95.7362 19.8044 95.9683 19.6255 96.2533 19.4829C96.5416 19.3371 96.8996 19.2642 97.3272 19.2642C97.884 19.2642 98.3977 19.41 98.8684 19.7017C99.339 19.9901 99.7152 20.4259 99.9969 21.0092C100.279 21.5892 100.419 22.3168 100.419 23.1918C100.419 24.0436 100.282 24.7628 100.007 25.3494C99.7351 25.9328 99.3639 26.3752 98.8932 26.6768C98.4259 26.9751 97.9022 27.1243 97.3222 27.1243C96.9112 27.1243 96.5615 27.0563 96.2732 26.9204C95.9881 26.7846 95.7545 26.6139 95.5722 26.4084C95.3899 26.1996 95.2507 25.9891 95.1546 25.777H95.0899V29.8636H92.972ZM95.0452 23.1818C95.0452 23.6359 95.1082 24.032 95.2341 24.37C95.3601 24.7081 95.5424 24.9716 95.781 25.1605C96.0196 25.3461 96.3096 25.4389 96.651 25.4389C96.9957 25.4389 97.2874 25.3445 97.526 25.1555C97.7647 24.9633 97.9453 24.6981 98.0679 24.3601C98.1939 24.0187 98.2568 23.6259 98.2568 23.1818C98.2568 22.741 98.1955 22.3532 98.0729 22.0185C97.9503 21.6837 97.7696 21.4219 97.531 21.2329C97.2924 21.044 96.999 20.9496 96.651 20.9496C96.3063 20.9496 96.0147 21.0407 95.776 21.223C95.5407 21.4053 95.3601 21.6638 95.2341 21.9986C95.1082 22.3333 95.0452 22.7277 95.0452 23.1818Z" fill="white"/>
<path d="M103.389 22.5852V27H101.271V16.8182H103.33V20.7109H103.419C103.591 20.2602 103.87 19.9072 104.254 19.652C104.639 19.3935 105.121 19.2642 105.701 19.2642C106.231 19.2642 106.694 19.3802 107.088 19.6122C107.486 19.8409 107.794 20.1707 108.013 20.6016C108.235 21.0291 108.344 21.5412 108.341 22.1378V27H106.223V22.5156C106.226 22.045 106.107 21.6787 105.865 21.4169C105.627 21.1551 105.292 21.0241 104.861 21.0241C104.573 21.0241 104.317 21.0855 104.095 21.2081C103.877 21.3307 103.704 21.5097 103.578 21.745C103.456 21.977 103.393 22.2571 103.389 22.5852Z" fill="white"/>
<path d="M113.331 23.4602H115.16L116.08 24.6435L116.985 25.6974L118.69 27.8352H116.681L115.508 26.3935L114.907 25.5383L113.331 23.4602ZM118.844 21.9091C118.844 23.0194 118.634 23.964 118.213 24.7429C117.795 25.5218 117.225 26.1167 116.502 26.5277C115.783 26.9354 114.974 27.1392 114.076 27.1392C113.171 27.1392 112.359 26.9337 111.64 26.5227C110.921 26.1117 110.353 25.5168 109.935 24.7379C109.517 23.959 109.309 23.0161 109.309 21.9091C109.309 20.7988 109.517 19.8542 109.935 19.0753C110.353 18.2964 110.921 17.7031 111.64 17.2954C112.359 16.8845 113.171 16.679 114.076 16.679C114.974 16.679 115.783 16.8845 116.502 17.2954C117.225 17.7031 117.795 18.2964 118.213 19.0753C118.634 19.8542 118.844 20.7988 118.844 21.9091ZM116.662 21.9091C116.662 21.1899 116.554 20.5833 116.338 20.0895C116.126 19.5956 115.826 19.2211 115.439 18.9659C115.051 18.7107 114.597 18.5831 114.076 18.5831C113.556 18.5831 113.102 18.7107 112.714 18.9659C112.326 19.2211 112.025 19.5956 111.809 20.0895C111.597 20.5833 111.491 21.1899 111.491 21.9091C111.491 22.6283 111.597 23.2348 111.809 23.7287C112.025 24.2225 112.326 24.5971 112.714 24.8523C113.102 25.1075 113.556 25.2351 114.076 25.2351C114.597 25.2351 115.051 25.1075 115.439 24.8523C115.826 24.5971 116.126 24.2225 116.338 23.7287C116.554 23.2348 116.662 22.6283 116.662 21.9091Z" fill="white"/>
<path d="M119.879 27V16.8182H122.031V25.2251H126.396V27H119.879Z" fill="white"/>
</svg>
